# xmcd
#
# Track frame offsets:
# 150
# 13812
# 31612
# 51100
# 64850
# 79087
# 93187
# 109987
# 123275
# 141537
# 152200
# 165400
# 177337
# 193500
# 208337
#
# Disc length: 2960 seconds
#
#
# Revision: 0
# Processed by: cddbd v1.5.1PL2 Copyright (c) Steve Scherf et al.
# Submitted via: FreeRIP 2.944 
#
DISCID=cc0b8e0f
DTITLE=木吉他合唱團 - 木吉他作品全集
DYEAR=1900
DGENRE=Pop
TTITLE0=拼宵夜
TTITLE1=散場電影
TTITLE2=七月涼山、古國今昔、季節與、廟會
TTITLE3=橋
TTITLE4=雲霧
TTITLE5=傘
TTITLE6=雨戀
TTITLE7=生命的陽光
TTITLE8=嘿！夥伴們
TTITLE9=掛彩燈
TTITLE10=鄉村、牧野
TTITLE11=與我歡唱
TTITLE12=南下列車
TTITLE13=趕路
TTITLE14=一如陽光的妳
EXTD=回顧精選輯
EXTT0=
EXTT1=
EXTT2=
EXTT3=
EXTT4=
EXTT5=
EXTT6=
EXTT7=
EXTT8=
EXTT9=
EXTT10=
EXTT11=
EXTT12=
EXTT13=
EXTT14=
PLAYORDER=
